REM DIRINDEX 1\2,1\3,1\4,1\5
REM DIRNAME cjc005,folder01,folder02,folder03,folder04
TITLE ""
FILE "P1Q_t_0923-0932.mp3" MP3
  TRACK 01 AUDIO
    TITLE "3:cjc005_3674"
    INDEX 01 00:00:00
  TRACK 02 AUDIO
    TITLE "0:"
    INDEX 01 00:01:05
  TRACK 03 AUDIO
    TITLE "4:cjc005_3675"
    INDEX 01 00:01:30
  TRACK 04 AUDIO
    TITLE "0:"
    INDEX 01 00:02:59
  TRACK 05 AUDIO
    TITLE "5:cjc005_3676"
    INDEX 01 00:03:08
  TRACK 06 AUDIO
    TITLE "0:"
    INDEX 01 00:07:29
  TRACK 07 AUDIO
    TITLE "3:cjc005_3677"
    INDEX 01 00:08:05
  TRACK 08 AUDIO
    TITLE "0:"
    INDEX 01 00:09:22
  TRACK 09 AUDIO
    TITLE "4:cjc005_3678"
    INDEX 01 00:09:51
  TRACK 10 AUDIO
    TITLE "0:"
    INDEX 01 00:11:11
  TRACK 11 AUDIO
    TITLE "5:cjc005_3679"
    INDEX 01 00:11:35
  TRACK 12 AUDIO
    TITLE "0:"
    INDEX 01 00:15:70
  TRACK 13 AUDIO
    TITLE "3:cjc005_3680"
    INDEX 01 00:16:48
  TRACK 14 AUDIO
    TITLE "0:"
    INDEX 01 00:17:47
  TRACK 15 AUDIO
    TITLE "4:cjc005_3681"
    INDEX 01 00:17:72
  TRACK 16 AUDIO
    TITLE "0:"
    INDEX 01 00:19:18
  TRACK 17 AUDIO
    TITLE "5:cjc005_3682"
    INDEX 01 00:19:40
  TRACK 18 AUDIO
    TITLE "0:"
    INDEX 01 00:22:13
  TRACK 19 AUDIO
    TITLE "3:cjc005_3683"
    INDEX 01 00:22:68
  TRACK 20 AUDIO
    TITLE "0:"
    INDEX 01 00:24:16
  TRACK 21 AUDIO
    TITLE "4:cjc005_3684"
    INDEX 01 00:24:43
  TRACK 22 AUDIO
    TITLE "0:"
    INDEX 01 00:25:68
  TRACK 23 AUDIO
    TITLE "5:cjc005_3685"
    INDEX 01 00:26:22
  TRACK 24 AUDIO
    TITLE "0:"
    INDEX 01 00:31:02
  TRACK 25 AUDIO
    TITLE "3:cjc005_3686"
    INDEX 01 00:31:61
  TRACK 26 AUDIO
    TITLE "0:"
    INDEX 01 00:32:74
  TRACK 27 AUDIO
    TITLE "4:cjc005_3687"
    INDEX 01 00:33:48
  TRACK 28 AUDIO
    TITLE "0:"
    INDEX 01 00:35:15
  TRACK 29 AUDIO
    TITLE "5:cjc005_3688"
    INDEX 01 00:35:39
  TRACK 30 AUDIO
    TITLE "0:"
    INDEX 01 00:40:17
  TRACK 31 AUDIO
    TITLE "3:cjc005_3689"
    INDEX 01 00:40:68
  TRACK 32 AUDIO
    TITLE "0:"
    INDEX 01 00:42:14
  TRACK 33 AUDIO
    TITLE "4:cjc005_3690"
    INDEX 01 00:42:41
  TRACK 34 AUDIO
    TITLE "0:"
    INDEX 01 00:43:64
  TRACK 35 AUDIO
    TITLE "5:cjc005_3691"
    INDEX 01 00:44:16
  TRACK 36 AUDIO
    TITLE "0:"
    INDEX 01 00:47:34
  TRACK 37 AUDIO
    TITLE "3:cjc005_3692"
    INDEX 01 00:48:10
  TRACK 38 AUDIO
    TITLE "0:"
    INDEX 01 00:49:33
  TRACK 39 AUDIO
    TITLE "4:cjc005_3693"
    INDEX 01 00:49:63
  TRACK 40 AUDIO
    TITLE "0:"
    INDEX 01 00:51:67
  TRACK 41 AUDIO
    TITLE "5:cjc005_3694"
    INDEX 01 00:52:16
  TRACK 42 AUDIO
    TITLE "0:"
    INDEX 01 00:57:50
  TRACK 43 AUDIO
    TITLE "3:cjc005_3695"
    INDEX 01 00:58:32
  TRACK 44 AUDIO
    TITLE "0:"
    INDEX 01 00:59:51
  TRACK 45 AUDIO
    TITLE "4:cjc005_3696"
    INDEX 01 01:00:04
  TRACK 46 AUDIO
    TITLE "0:"
    INDEX 01 01:01:29
  TRACK 47 AUDIO
    TITLE "5:cjc005_3697"
    INDEX 01 01:01:58
  TRACK 48 AUDIO
    TITLE "0:"
    INDEX 01 01:04:56
  TRACK 49 AUDIO
    TITLE "3:cjc005_3698"
    INDEX 01 01:05:40
  TRACK 50 AUDIO
    TITLE "0:"
    INDEX 01 01:06:59
  TRACK 51 AUDIO
    TITLE "4:cjc005_3699"
    INDEX 01 01:07:14
  TRACK 52 AUDIO
    TITLE "0:"
    INDEX 01 01:08:52
  TRACK 53 AUDIO
    TITLE "5:cjc005_3700"
    INDEX 01 01:09:01
  TRACK 54 AUDIO
    TITLE "0:"
    INDEX 01 01:13:26
  TRACK 55 AUDIO
    TITLE "3:cjc005_3701"
    INDEX 01 01:14:08
  TRACK 56 AUDIO
    TITLE "0:"
    INDEX 01 01:15:25
  TRACK 57 AUDIO
    TITLE "4:cjc005_3702"
    INDEX 01 01:15:54
  TRACK 58 AUDIO
    TITLE "0:"
    INDEX 01 01:17:02
  TRACK 59 AUDIO
    TITLE "5:cjc005_3703"
    INDEX 01 01:17:22
  TRACK 60 AUDIO
    TITLE "0:"
    INDEX 01 01:21:59
